<svg width="17" height="17" viewBox="0 0 17 17" fill="none" xmlns="http://www.w3.org/2000/svg">
<mask id="path-1-inside-1_13717_2320" fill="white">
<path d="M8.12677 1.93496e-07C6.72401 -0.000305907 5.34507 0.362569 4.12416 1.0533C2.90325 1.74404 1.88197 2.7391 1.15972 3.94164C0.437474 5.14418 0.0388684 6.51322 0.00270152 7.91552C-0.0334654 9.31781 0.294039 10.7056 0.953336 11.9438L0.0666172 14.6039C-0.00683229 14.8242 -0.0174915 15.0605 0.0358342 15.2865C0.08916 15.5124 0.204363 15.7191 0.368532 15.8832C0.532701 16.0474 0.739347 16.1626 0.96531 16.2159C1.19127 16.2693 1.42762 16.2586 1.64787 16.1852L4.30802 15.2984C5.39769 15.878 6.60506 16.2017 7.83851 16.245C9.07196 16.2883 10.2991 16.05 11.4267 15.5482C12.5543 15.0465 13.5528 14.2944 14.3463 13.3491C15.1399 12.4039 15.7076 11.2902 16.0066 10.0928C16.3055 8.89529 16.3276 7.64547 16.0714 6.43815C15.8152 5.23084 15.2873 4.09776 14.5277 3.12493C13.7682 2.15211 12.797 1.36509 11.6879 0.823636C10.5789 0.282179 9.36098 0.00050643 8.12677 1.93496e-07ZM8.12677 15C6.91816 15.0008 5.73076 14.6825 4.68459 14.0773C4.60799 14.0329 4.52283 14.0053 4.43474 13.9963C4.34666 13.9872 4.25766 13.997 4.17365 14.025L1.25177 15L2.22599 12.0781C2.25407 11.9942 2.264 11.9052 2.25511 11.8171C2.24622 11.729 2.21872 11.6438 2.17443 11.5672C1.41659 10.257 1.11233 8.73327 1.30883 7.23247C1.50533 5.73167 2.19161 4.33767 3.26122 3.26671C4.33082 2.19576 5.72396 1.50771 7.2245 1.30931C8.72505 1.11092 10.2491 1.41326 11.5603 2.16944C12.8715 2.92562 13.8965 4.09337 14.4763 5.49152C15.0561 6.88968 15.1582 8.4401 14.767 9.90226C14.3757 11.3644 13.5128 12.6566 12.3122 13.5783C11.1116 14.5 9.64038 14.9998 8.12677 15Z"/>
</mask>
<path d="M8.12677 1.93496e-07C6.72401 -0.000305907 5.34507 0.362569 4.12416 1.0533C2.90325 1.74404 1.88197 2.7391 1.15972 3.94164C0.437474 5.14418 0.0388684 6.51322 0.00270152 7.91552C-0.0334654 9.31781 0.294039 10.7056 0.953336 11.9438L0.0666172 14.6039C-0.00683229 14.8242 -0.0174915 15.0605 0.0358342 15.2865C0.08916 15.5124 0.204363 15.7191 0.368532 15.8832C0.532701 16.0474 0.739347 16.1626 0.96531 16.2159C1.19127 16.2693 1.42762 16.2586 1.64787 16.1852L4.30802 15.2984C5.39769 15.878 6.60506 16.2017 7.83851 16.245C9.07196 16.2883 10.2991 16.05 11.4267 15.5482C12.5543 15.0465 13.5528 14.2944 14.3463 13.3491C15.1399 12.4039 15.7076 11.2902 16.0066 10.0928C16.3055 8.89529 16.3276 7.64547 16.0714 6.43815C15.8152 5.23084 15.2873 4.09776 14.5277 3.12493C13.7682 2.15211 12.797 1.36509 11.6879 0.823636C10.5789 0.282179 9.36098 0.00050643 8.12677 1.93496e-07ZM8.12677 15C6.91816 15.0008 5.73076 14.6825 4.68459 14.0773C4.60799 14.0329 4.52283 14.0053 4.43474 13.9963C4.34666 13.9872 4.25766 13.997 4.17365 14.025L1.25177 15L2.22599 12.0781C2.25407 11.9942 2.264 11.9052 2.25511 11.8171C2.24622 11.729 2.21872 11.6438 2.17443 11.5672C1.41659 10.257 1.11233 8.73327 1.30883 7.23247C1.50533 5.73167 2.19161 4.33767 3.26122 3.26671C4.33082 2.19576 5.72396 1.50771 7.2245 1.30931C8.72505 1.11092 10.2491 1.41326 11.5603 2.16944C12.8715 2.92562 13.8965 4.09337 14.4763 5.49152C15.0561 6.88968 15.1582 8.4401 14.767 9.90226C14.3757 11.3644 13.5128 12.6566 12.3122 13.5783C11.1116 14.5 9.64038 14.9998 8.12677 15Z" fill="#211F26"/>
<path d="M8.12677 1.93496e-07L8.1278 -2.5L8.12732 -2.5L8.12677 1.93496e-07ZM0.953336 11.9438L3.32504 12.7343L3.66445 11.7161L3.16 10.7688L0.953336 11.9438ZM0.0666172 14.6039L2.43821 15.3948L2.43833 15.3945L0.0666172 14.6039ZM1.64787 16.1852L0.857298 13.8134L0.856964 13.8136L1.64787 16.1852ZM4.30802 15.2984L5.482 13.0912L4.53501 12.5875L3.51745 12.9267L4.30802 15.2984ZM16.0066 10.0928L18.4321 10.6982L16.0066 10.0928ZM16.0714 6.43815L13.6259 6.95718L16.0714 6.43815ZM8.12677 15L8.12636 12.5L8.12507 12.5L8.12677 15ZM4.68459 14.0773L3.43043 16.24L3.43273 16.2413L4.68459 14.0773ZM4.17365 14.025L3.38405 11.653L3.38232 11.6535L4.17365 14.025ZM1.25177 15L-1.11987 14.2092L-2.70218 18.9549L2.0431 17.3715L1.25177 15ZM2.22599 12.0781L-0.1449 11.2851L-0.145653 11.2874L2.22599 12.0781ZM2.17443 11.5672L4.33907 10.3165L4.33851 10.3155L2.17443 11.5672ZM8.12677 1.93496e-07L8.12732 -2.5C6.29294 -2.5004 4.4897 -2.02587 2.89313 -1.1226L4.12416 1.0533L5.35519 3.22921C6.20043 2.75101 7.15509 2.49979 8.12623 2.5L8.12677 1.93496e-07ZM4.12416 1.0533L2.89313 -1.1226C1.29655 -0.219333 -0.0389671 1.0819 -0.983443 2.65445L1.15972 3.94164L3.30288 5.22883C3.8029 4.3963 4.50994 3.70741 5.35519 3.22921L4.12416 1.0533ZM1.15972 3.94164L-0.983443 2.65445C-1.92792 4.227 -2.44917 6.01729 -2.49647 7.85106L0.00270152 7.91552L2.50187 7.97997C2.52691 7.00915 2.80287 6.06135 3.30288 5.22883L1.15972 3.94164ZM0.00270152 7.91552L-2.49647 7.85106C-2.54376 9.68483 -2.11549 11.4996 -1.25333 13.1188L0.953336 11.9438L3.16 10.7688C2.70357 9.91156 2.47683 8.95079 2.50187 7.97997L0.00270152 7.91552ZM0.953336 11.9438L-1.41837 11.1532L-2.30509 13.8133L0.0666172 14.6039L2.43833 15.3945L3.32504 12.7343L0.953336 11.9438ZM0.0666172 14.6039L-2.30498 13.813C-2.52533 14.4737 -2.55731 15.1828 -2.39733 15.8607L0.0358342 15.2865L2.469 14.7123C2.52232 14.9382 2.51166 15.1746 2.43821 15.3948L0.0666172 14.6039ZM0.0358342 15.2865L-2.39733 15.8607C-2.23735 16.5386 -1.89174 17.1585 -1.39923 17.651L0.368532 15.8832L2.1363 14.1155C2.30047 14.2796 2.41567 14.4863 2.469 14.7123L0.0358342 15.2865ZM0.368532 15.8832L-1.39923 17.651C-0.906732 18.1435 -0.286795 18.4891 0.391099 18.6491L0.96531 16.2159L1.53952 13.7828C1.76549 13.8361 1.97213 13.9513 2.1363 14.1155L0.368532 15.8832ZM0.96531 16.2159L0.391099 18.6491C1.06899 18.8091 1.77804 18.7771 2.43877 18.5568L1.64787 16.1852L0.856964 13.8136C1.07721 13.7401 1.31355 13.7295 1.53952 13.7828L0.96531 16.2159ZM1.64787 16.1852L2.43844 18.5569L5.09859 17.6701L4.30802 15.2984L3.51745 12.9267L0.857298 13.8134L1.64787 16.1852ZM4.30802 15.2984L3.13405 17.5056C4.55899 18.2636 6.13787 18.6869 7.75084 18.7435L7.83851 16.245L7.92618 13.7465C7.07226 13.7166 6.23638 13.4925 5.482 13.0912L4.30802 15.2984ZM7.83851 16.245L7.75084 18.7435C9.36381 18.8001 10.9685 18.4885 12.443 17.8323L11.4267 15.5482L10.4103 13.2642C9.62964 13.6115 8.78011 13.7765 7.92618 13.7465L7.83851 16.245ZM11.4267 15.5482L12.443 17.8323C13.9176 17.1761 15.2233 16.1927 16.261 14.9566L14.3463 13.3491L12.4316 11.7417C11.8822 12.3961 11.1909 12.9168 10.4103 13.2642L11.4267 15.5482ZM14.3463 13.3491L16.261 14.9566C17.2988 13.7204 18.0413 12.2641 18.4321 10.6982L16.0066 10.0928L13.581 9.48729C13.374 10.3163 12.981 11.0873 12.4316 11.7417L14.3463 13.3491ZM16.0066 10.0928L18.4321 10.6982C18.823 9.13231 18.852 7.49792 18.5169 5.91912L16.0714 6.43815L13.6259 6.95718C13.8033 7.79302 13.7879 8.65828 13.581 9.48729L16.0066 10.0928ZM16.0714 6.43815L18.5169 5.91912C18.1819 4.34033 17.4915 2.85861 16.4983 1.58645L14.5277 3.12493L12.5572 4.66342C13.083 5.33691 13.4485 6.12135 13.6259 6.95718L16.0714 6.43815ZM14.5277 3.12493L16.4983 1.58645C15.5051 0.314293 14.2351 -0.714877 12.7847 -1.42294L11.6879 0.823636L10.5912 3.07021C11.359 3.44506 12.0314 3.98992 12.5572 4.66342L14.5277 3.12493ZM11.6879 0.823636L12.7847 -1.42294C11.3344 -2.131 9.74176 -2.49934 8.1278 -2.5L8.12677 1.93496e-07L8.12575 2.5C8.9802 2.50035 9.82334 2.69535 10.5912 3.07021L11.6879 0.823636ZM8.12677 15L8.12507 12.5C7.35661 12.5005 6.60162 12.2982 5.93644 11.9134L4.68459 14.0773L3.43273 16.2413C4.85989 17.0669 6.47972 17.5011 8.12847 17.5L8.12677 15ZM4.68459 14.0773L5.93874 11.9147C5.55576 11.6926 5.12995 11.5544 4.68953 11.5093L4.43474 13.9963L4.17996 16.4832C3.9157 16.4562 3.66022 16.3733 3.43043 16.24L4.68459 14.0773ZM4.43474 13.9963L4.68953 11.5093C4.2491 11.4642 3.80411 11.5131 3.38405 11.653L4.17365 14.025L4.96324 16.397C4.71121 16.4809 4.44422 16.5103 4.17996 16.4832L4.43474 13.9963ZM4.17365 14.025L3.38232 11.6535L0.460443 12.6285L1.25177 15L2.0431 17.3715L4.96498 16.3965L4.17365 14.025ZM1.25177 15L3.62342 15.7908L4.59764 12.8689L2.22599 12.0781L-0.145653 11.2874L-1.11987 14.2092L1.25177 15ZM2.22599 12.0781L4.59688 12.8711C4.7373 12.4513 4.78692 12.0065 4.74248 11.5661L2.25511 11.8171L-0.232255 12.0681C-0.258922 11.8039 -0.229148 11.537 -0.144899 11.2851L2.22599 12.0781ZM2.25511 11.8171L4.74248 11.5661C4.69803 11.1257 4.56053 10.6997 4.33907 10.3165L2.17443 11.5672L0.00978898 12.8179C-0.123086 12.588 -0.205588 12.3324 -0.232255 12.0681L2.25511 11.8171ZM2.17443 11.5672L4.33851 10.3155C3.85625 9.4817 3.66262 8.51208 3.78767 7.55703L1.30883 7.23247L-1.17002 6.90791C-1.43797 8.95445 -1.02306 11.0322 0.0103511 12.8189L2.17443 11.5672ZM1.30883 7.23247L3.78767 7.55703C3.91272 6.60197 4.34944 5.71488 5.0301 5.03336L3.26122 3.26671L1.49233 1.50006C0.0337814 2.96046 -0.902061 4.86137 -1.17002 6.90791L1.30883 7.23247ZM3.26122 3.26671L5.0301 5.03336C5.71076 4.35184 6.5973 3.914 7.55219 3.78775L7.2245 1.30931L6.89682 -1.16912C4.85061 -0.898576 2.95089 0.0396671 1.49233 1.50006L3.26122 3.26671ZM7.2245 1.30931L7.55219 3.78775C8.50708 3.66149 9.47695 3.85389 10.3113 4.3351L11.5603 2.16944L12.8093 0.00378293C11.0213 -1.02737 8.94302 -1.43966 6.89682 -1.16912L7.2245 1.30931ZM11.5603 2.16944L10.3113 4.3351C11.1457 4.8163 11.798 5.55941 12.167 6.44915L14.4763 5.49152L16.7856 4.5339C15.995 2.62732 14.5973 1.03494 12.8093 0.00378293L11.5603 2.16944ZM14.4763 5.49152L12.167 6.44915C12.5359 7.33889 12.6009 8.32552 12.3519 9.25598L14.767 9.90226L17.182 10.5485C17.7155 8.55468 17.5762 6.44048 16.7856 4.5339L14.4763 5.49152ZM14.767 9.90226L12.3519 9.25598C12.1029 10.1864 11.5538 11.0087 10.7898 11.5953L12.3122 13.5783L13.8346 15.5613C15.4718 14.3044 16.6484 12.5424 17.182 10.5485L14.767 9.90226ZM12.3122 13.5783L10.7898 11.5953C10.0258 12.1818 9.08957 12.4998 8.12636 12.5L8.12677 15L8.12718 17.5C10.1912 17.4997 12.1974 16.8182 13.8346 15.5613L12.3122 13.5783Z" fill="#211F26" mask="url(#path-1-inside-1_13717_2320)"/>
</svg>
